<?xml version="1.0" encoding="UTF-8"?><svg id="Layer_2" xmlns="http://www.w3.org/2000/svg" width="273.1" height="281.4" viewBox="0 0 273.1 281.4"><g id="Layer_1-2"><path d="M223.9,0L46.9.2C21,.2,0,21.2,0,47.1l.4,186.5c0,26.3,22.1,47.8,49.2,47.8h174.3c27.1,0,49.2-21.4,49.2-47.8V47.8c0-26.3-22.1-47.8-49.2-47.8ZM153.3,39.3c-14.5,13.6-17.4,33.4-17.4,51.1v36.2c0,4-3.5,7.2-7.8,7.2h-38.8c-19.2,0-40.6,2.3-55.4,15.6l119.4-110ZM253.4,233.7c0,15.5-13.2,28.1-29.5,28.1H49.6c-16.3,0-29.5-12.6-29.5-28.1v-40.5s0,0,0,0v13.9c0-40.5,36.6-55.3,61.4-55.3h62.5c8.3,0,15-6.2,15-13.8v-50.7c0-41,25-67.3,49.3-67.3h19.5c14.4,1.8,25.6,13.6,25.6,27.8v185.9ZM25.1,59c18.6-4.7,30.4-15.5,34.2-34.9,0-.5.7-.5.8,0,4.7,17.8,14.6,29.9,33.1,34.4.5.1.5.8,0,.9-18.1,4.3-29.1,15-32.8,33.6,0,.5-.8.5-.9,0-4.4-18.5-15.5-29.5-34.4-33.2-.5,0-.5-.7,0-.9Z" fill="#000" stroke-width="0"/></g></svg>